# xmcd
#
# Track frame offsets: 
#        150
#        15600
#        31825
#        46900
#        64250
#        79950
#        95300
#        111950
#        127800
#        140725
#        157925
#        175600
#        189175
#        206250
#        219600
#        241700
#
# Disc length: 3394 seconds
#
# Revision: 3
# Processed by: cddbd v1.5.2PL0 Copyright (c) Steve Scherf et al.
# Submitted via: ExactAudioCopy v1.0b3
#
DISCID=c80d4010
DTITLE=Various Artist - 港剧经典CD2
DYEAR=1997
DGENRE=Other
TTITLE0=叶振棠&叶丽仪 - 笑傲江湖
TTITLE1=叶振棠 - 忘尽心中情
TTITLE2=郑少秋 - 楚留香
TTITLE3=郑少秋 - 留香恨
TTITLE4=张德兰 - 何日再相见
TTITLE5=张德兰 - 情义两心坚
TTITLE6=郑少秋 - 倚天屠龙记
TTITLE7=罗文 - 旧侣难忘
TTITLE8=关正杰 - 天龙诀
TTITLE9=关正杰 - 残梦
TTITLE10=谭咏麟 - 谁可改变
TTITLE11=郑少秋 - 誓要入刀山
TTITLE12=叶振棠&叶丽仪 - 只有情永在
TTITLE13=郑少秋 - 神龙五虎将
TTITLE14=郑少秋 - 岁月无情
TTITLE15=叶振棠 - 大侠霍元甲
EXTD=
EXTT0=
EXTT1=
EXTT2=
EXTT3=
EXTT4=
EXTT5=
EXTT6=
EXTT7=
EXTT8=
EXTT9=
EXTT10=
EXTT11=
EXTT12=
EXTT13=
EXTT14=
EXTT15=
PLAYORDER=
